{"title":"My.Brothers.Wedding.1983.DVDRip.x264-HANDJOB","uid":10687389,"size":1162565046,"categoryP":"video","categoryS":"movies","magnet":"?xt=urn:btih:7532de27b346dd4b5ab8dea227f2836af033e442&amp;dn=My.Brothers.Wedding.1983.DVDRip.x264-HANDJOB&amp;tr=udp%3A%2F%2Ftracker.openbittorrent.com%3A80&amp;tr=udp%3A%2F%2Fopen.demonii.com%3A1337&amp;tr=udp%3A%2F%2Ftracker.coppersurfer.tk%3A6969&amp;tr=udp%3A%2F%2Fexodus.desync.com%3A6969","seeders":1,"leechers":0,"uploader":"rpessoa","files":1,"time":1407089328,"description":"A man who despises his upwardly mobile lawyer brother reluctantly agrees to be best man at his wedding.\n &lt;a href=&quot;\nhttp://www.imdb.com/title/tt0087763/&quot; rel=&quot;nofollow&quot; target=&quot;_NEW&quot;&gt;\nhttp://www.imdb.com/title/tt0087763/&lt;/a&gt;\n\nGeneral\nUnique ID : 253856191201112864293269192718318785218 (0xBEFAEC8C97030DA79D486A9628F752C2)\nComplete name : My.Brothers.Wedding.1983.DVDRip.x264-HANDJOB.mkv\nFormat : Matroska\nFormat version : Version 2\nFile size : 1.08 GiB\nDuration : 1h 17mn\nOverall bit rate : 2 004 Kbps\nEncoded date : UTC 2013-06-03 07:12:23\nWriting application : mkvmerge v6.2.0 ('Promised Land') built on Apr 28 2013 12:22:01\nWriting library : libebml v1.3.0 + libmatroska v1.4.0\n\nVideo\nID : 1\nFormat : AVC\nFormat/Info : Advanced Video Codec\nFormat profile : &lt;a class=&quot;__cf_email__&quot; href=&quot;/cdn-cgi/l/email-protection&quot; data-cfemail=&quot;91d9f8f6f9d1dda2bfa0&quot;&gt;[email&amp;#160;protected]&lt;/a&gt;&lt;script cf-hash='f9e31' type=&quot;text/javascript&quot;&gt;\n/* &lt;![CDATA[ */!function(){try{var t=&quot;currentScript&quot;in document?document.currentScript:function(){for(var t=document.getElementsByTagName(&quot;script&quot;),e=t.length;e--;)if(t[e].getAttribute(&quot;cf-hash&quot;))return t[e]}();if(t&amp;&amp;t.previousSibling){var e,r,n,i,c=t.previousSibling,a=c.getAttribute(&quot;data-cfemail&quot;);if(a){for(e=&quot;&quot;,r=parseInt(a.substr(0,2),16),n=2;a.length-n;n+=2)i=parseInt(a.substr(n,2),16)^r,e+=String.fromCharCode(i);e=document.createTextNode(e),c.parentNode.replaceChild(e,c)}}}catch(u){}}();/* ]]&gt; */&lt;/script&gt;\nFormat settings, CABAC : Yes\nFormat settings, ReFrames : 10 frames\nCodec ID : V_MPEG4/ISO/AVC\nDuration : 1h 17mn\nBit rate : 1 581 Kbps\nWidth : 700 pixels\nHeight : 574 pixels\nDisplay aspect ratio : 1.300\nOriginal display aspect ratio : 4:3\nFrame rate : 25.000 fps\nColor space : YUV\nChroma subsampling : 4:2:0\nBit depth : 8 bits\nScan type : Progressive\nBits/(Pixel*Frame) : 0.157\nStream size : 874 MiB (79%)\nWriting library : x264 core 130 r2273 b3065e6\nEncoding settings : cabac=1 / ref=10 / deblock=1:-3:-3 / analyse=0x3:0x133 / me=umh / subme=10 / psy=1 / psy_rd=1.00:0.00 / mixed_ref=1 / me_range=24 / chroma_me=1 / trellis=2 / 8x8dct=1 / cqm=0 / deadzone=21,11 / fast_pskip=0 / chroma_qp_offset=-2 / threads=12 / lookahead_threads=1 / sliced_threads=0 / nr=0 / decimate=1 / interlaced=0 / bluray_compat=0 / constrained_intra=0 / bframes=6 / b_pyramid=2 / b_adapt=2 / b_bias=0 / direct=3 / weightb=1 / open_gop=0 / weightp=2 / keyint=250 / keyint_min=25 / scenecut=40 / intra_refresh=0 / rc_lookahead=60 / rc=crf / mbtree=1 / crf=20.5 / qcomp=0.60 / qpmin=0 / qpmax=69 / qpstep=4 / ip_ratio=1.40 / aq=1:1.00\nLanguage : English\nDefault : Yes\nForced : No\nColor primaries : BT.470-6 System B, BT.470-6 System G, BT.601-6 625, BT.1358 625, BT.1700 625 PAL, BT.1700 625 SECAM\nTransfer characteristics : BT.709-5, BT.1361\nMatrix coefficients : BT.601-6 525, BT.1358 525, BT.1700 NTSC, SMPTE 170M\n\nAudio\nID : 2\nFormat : AC-3\nFormat/Info : Audio Coding 3\nMode extension : CM (complete main)\nCodec ID : A_AC3\nDuration : 1h 17mn\nBit rate mode : Constant\nBit rate : 384 Kbps\nChannel(s) : 2 channels\nChannel positions : Front: L R\nSampling rate : 48.0 KHz\nBit depth : 16 bits\nCompression mode : Lossy\nStream size : 212 MiB (19%)\nLanguage : English\nDefault : Yes\nForced : No\n\nText #1\nID : 3\nFormat : UTF-8\nCodec ID : S_TEXT/UTF8\nCodec ID/Info : UTF-8 Plain Text\nLanguage : English\nDefault : No\nForced : No\n\nText #2\nID : 4\nFormat : UTF-8\nCodec ID : S_TEXT/UTF8\nCodec ID/Info : UTF-8 Plain Text\nLanguage : French\nDefault : No\nForced : No\n\nMenu\n00:00:00.000 : en:Chapter 1\n00:10:55.200 : en:Chapter 2\n00:17:47.560 : en:Chapter 3\n00:26:43.160 : en:Chapter 4\n00:39:57.720 : en:Chapter 5\n00:53:09.680 : en:Chapter 6\n00:58:05.040 : en:Chapter 7\n01:06:22.160 : en:Chapter 8\n\n\nThanks to original uploader.","torrent":{"xt":"urn:btih:7532de27b346dd4b5ab8dea227f2836af033e442","amp;dn":"My.Brothers.Wedding.1983.DVDRip.x264-HANDJOB","amp;tr":["udp%3A%2F%2Ftracker.openbittorrent.com%3A80","udp%3A%2F%2Fopen.demonii.com%3A1337","udp%3A%2F%2Ftracker.coppersurfer.tk%3A6969","udp%3A%2F%2Fexodus.desync.com%3A6969"],"infoHash":"7532de27b346dd4b5ab8dea227f2836af033e442","infoHashBuffer":{"type":"Buffer","data":[117,50,222,39,179,70,221,75,90,184,222,162,39,242,131,106,240,51,228,66]},"announce":[],"urlList":[]}}